<mxfile host="Electron" modified="2023-08-02T14:13:50.586Z" agent="Mozilla/5.0 (Windows NT 10.0; Win64; x64) AppleWebKit/537.36 (KHTML, like Gecko) draw.io/21.6.1 Chrome/112.0.5615.204 Electron/24.6.1 Safari/537.36" etag="nTbqtMAPo2YFVr0Z-_p0" version="21.6.1" type="device">
  <diagram name="Page-1" id="OpWTwDbj9fGWJGAPWJQz">
    <mxGraphModel dx="980" dy="968" grid="1" gridSize="10" guides="1" tooltips="1" connect="1" arrows="1" fold="1" page="1" pageScale="1" pageWidth="390" pageHeight="400" math="0" shadow="0">
      <root>
        <mxCell id="0" />
        <mxCell id="1" parent="0" />
        <mxCell id="vBTqLdXRIyOvVhQML8VP-28" value="" style="rounded=1;whiteSpace=wrap;html=1;align=left;arcSize=5;" parent="1" vertex="1">
          <mxGeometry y="-400" width="390" height="215" as="geometry" />
        </mxCell>
        <mxCell id="BiqcfHCSWog3dznEfrMv-2" style="edgeStyle=orthogonalEdgeStyle;rounded=0;orthogonalLoop=1;jettySize=auto;html=1;entryX=0.5;entryY=0;entryDx=0;entryDy=0;" parent="1" source="BiqcfHCSWog3dznEfrMv-1" target="JxlkHMdp25saiBgIkoPC-2" edge="1">
          <mxGeometry relative="1" as="geometry">
            <Array as="points">
              <mxPoint x="258" y="-345" />
            </Array>
          </mxGeometry>
        </mxCell>
        <mxCell id="BiqcfHCSWog3dznEfrMv-1" value="&lt;p style=&quot;line-height: 70%;&quot;&gt;&lt;font style=&quot;font-size: 7px;&quot;&gt;AllocateGroupUseCase&lt;/font&gt;&lt;br&gt;&lt;/p&gt;" style="rounded=1;whiteSpace=wrap;html=1;fillColor=#66FF66;" parent="1" vertex="1">
          <mxGeometry x="270" y="-355" width="110" height="20" as="geometry" />
        </mxCell>
        <mxCell id="ATXnocJcbOEIk6kjFFpH-1" value="" style="rounded=1;whiteSpace=wrap;html=1;align=left;arcSize=5;" parent="1" vertex="1">
          <mxGeometry y="-185" width="390" height="180" as="geometry" />
        </mxCell>
        <mxCell id="vBTqLdXRIyOvVhQML8VP-19" style="edgeStyle=orthogonalEdgeStyle;rounded=0;orthogonalLoop=1;jettySize=auto;html=1;entryX=0.5;entryY=0;entryDx=0;entryDy=0;entryPerimeter=0;" parent="1" source="JxlkHMdp25saiBgIkoPC-1" target="vBTqLdXRIyOvVhQML8VP-18" edge="1">
          <mxGeometry relative="1" as="geometry" />
        </mxCell>
        <mxCell id="JxlkHMdp25saiBgIkoPC-1" value="&lt;p style=&quot;line-height: 70%;&quot;&gt;&lt;font style=&quot;font-size: 7px;&quot;&gt;ExperimentRepository&lt;/font&gt;&lt;/p&gt;" style="rounded=1;whiteSpace=wrap;html=1;fillColor=#7EA6E0;" parent="1" vertex="1">
          <mxGeometry x="80" y="-155" width="90" height="20" as="geometry" />
        </mxCell>
        <mxCell id="JxlkHMdp25saiBgIkoPC-2" value="&lt;p style=&quot;line-height: 70%;&quot;&gt;&lt;font style=&quot;font-size: 7px;&quot;&gt;ParticipantRepository&lt;/font&gt;&lt;/p&gt;" style="rounded=1;whiteSpace=wrap;html=1;fillColor=#66FF66;" parent="1" vertex="1">
          <mxGeometry x="213" y="-155" width="90" height="20" as="geometry" />
        </mxCell>
        <mxCell id="vBTqLdXRIyOvVhQML8VP-21" style="edgeStyle=orthogonalEdgeStyle;rounded=0;orthogonalLoop=1;jettySize=auto;html=1;entryX=0.5;entryY=0;entryDx=0;entryDy=0;entryPerimeter=0;" parent="1" source="JxlkHMdp25saiBgIkoPC-4" edge="1">
          <mxGeometry relative="1" as="geometry">
            <mxPoint x="190.0000000000001" y="-75" as="targetPoint" />
          </mxGeometry>
        </mxCell>
        <mxCell id="JxlkHMdp25saiBgIkoPC-4" value="&lt;p style=&quot;line-height: 70%;&quot;&gt;&lt;font style=&quot;font-size: 7px;&quot;&gt;ParticipantRepository&lt;/font&gt;&lt;/p&gt;" style="rounded=1;whiteSpace=wrap;html=1;fillColor=#66FF66;" parent="1" vertex="1">
          <mxGeometry x="145" y="-115" width="90" height="20" as="geometry" />
        </mxCell>
        <mxCell id="JxlkHMdp25saiBgIkoPC-5" value="&lt;p style=&quot;line-height: 70%;&quot;&gt;&lt;font style=&quot;font-size: 7px;&quot;&gt;OtherRepository&lt;/font&gt;&lt;/p&gt;" style="rounded=1;whiteSpace=wrap;html=1;fillColor=#8f8f8f;" parent="1" vertex="1">
          <mxGeometry x="275" y="-115" width="90" height="20" as="geometry" />
        </mxCell>
        <mxCell id="JxlkHMdp25saiBgIkoPC-7" value="&lt;p style=&quot;line-height: 70%; font-size: 7px;&quot;&gt;&lt;font style=&quot;font-size: 7px;&quot;&gt;Other Data Source&lt;/font&gt;&lt;/p&gt;" style="rounded=1;whiteSpace=wrap;html=1;fillColor=#8f8f8f;" parent="1" vertex="1">
          <mxGeometry x="275" y="-75" width="90" height="20" as="geometry" />
        </mxCell>
        <mxCell id="JxlkHMdp25saiBgIkoPC-11" value="" style="endArrow=classic;html=1;rounded=0;exitX=0.5;exitY=1;exitDx=0;exitDy=0;entryX=0.5;entryY=0;entryDx=0;entryDy=0;" parent="1" source="JxlkHMdp25saiBgIkoPC-2" target="JxlkHMdp25saiBgIkoPC-4" edge="1">
          <mxGeometry width="50" height="50" relative="1" as="geometry">
            <mxPoint x="108" y="-125" as="sourcePoint" />
            <mxPoint x="108" y="-90" as="targetPoint" />
          </mxGeometry>
        </mxCell>
        <mxCell id="JxlkHMdp25saiBgIkoPC-12" value="" style="endArrow=classic;html=1;rounded=0;entryX=0.5;entryY=0;entryDx=0;entryDy=0;exitX=0.5;exitY=1;exitDx=0;exitDy=0;" parent="1" source="JxlkHMdp25saiBgIkoPC-2" target="JxlkHMdp25saiBgIkoPC-5" edge="1">
          <mxGeometry width="50" height="50" relative="1" as="geometry">
            <mxPoint x="275" y="-135" as="sourcePoint" />
            <mxPoint x="220" y="-90" as="targetPoint" />
          </mxGeometry>
        </mxCell>
        <mxCell id="JxlkHMdp25saiBgIkoPC-15" value="" style="endArrow=classic;html=1;rounded=0;exitX=0.25;exitY=1;exitDx=0;exitDy=0;entryX=0.25;entryY=0;entryDx=0;entryDy=0;" parent="1" source="JxlkHMdp25saiBgIkoPC-5" target="JxlkHMdp25saiBgIkoPC-7" edge="1">
          <mxGeometry width="50" height="50" relative="1" as="geometry">
            <mxPoint x="248" y="-60" as="sourcePoint" />
            <mxPoint x="248" y="-25" as="targetPoint" />
          </mxGeometry>
        </mxCell>
        <mxCell id="JxlkHMdp25saiBgIkoPC-16" value="" style="endArrow=classic;html=1;rounded=0;exitX=0.75;exitY=1;exitDx=0;exitDy=0;entryX=0.75;entryY=0;entryDx=0;entryDy=0;" parent="1" source="JxlkHMdp25saiBgIkoPC-5" target="JxlkHMdp25saiBgIkoPC-7" edge="1">
          <mxGeometry width="50" height="50" relative="1" as="geometry">
            <mxPoint x="322" y="-60" as="sourcePoint" />
            <mxPoint x="322" y="-25" as="targetPoint" />
          </mxGeometry>
        </mxCell>
        <mxCell id="vBTqLdXRIyOvVhQML8VP-24" value="" style="group" parent="1" vertex="1" connectable="0">
          <mxGeometry x="46" y="-75" width="48" height="60" as="geometry" />
        </mxCell>
        <mxCell id="vBTqLdXRIyOvVhQML8VP-18" value="&lt;p style=&quot;line-height: 70%;&quot;&gt;&lt;span style=&quot;font-size: 7px; background-color: initial;&quot;&gt;Experiment Data Source&lt;/span&gt;&lt;br&gt;&lt;/p&gt;" style="shape=note;whiteSpace=wrap;html=1;backgroundOutline=1;darkOpacity=0.05;aspect=fixed;size=14;" parent="vBTqLdXRIyOvVhQML8VP-24" vertex="1">
          <mxGeometry width="48" height="60" as="geometry" />
        </mxCell>
        <mxCell id="vBTqLdXRIyOvVhQML8VP-22" value="&lt;font style=&quot;font-size: 7px;&quot;&gt;.csv&lt;/font&gt;" style="text;html=1;strokeColor=none;fillColor=none;align=center;verticalAlign=middle;whiteSpace=wrap;rounded=0;" parent="vBTqLdXRIyOvVhQML8VP-24" vertex="1">
          <mxGeometry x="28" y="47" width="19" height="10" as="geometry" />
        </mxCell>
        <mxCell id="vBTqLdXRIyOvVhQML8VP-25" value="" style="group" parent="1" vertex="1" connectable="0">
          <mxGeometry x="165" y="-75" width="48" height="60" as="geometry" />
        </mxCell>
        <mxCell id="vBTqLdXRIyOvVhQML8VP-26" value="&lt;p style=&quot;line-height: 70%;&quot;&gt;&lt;span style=&quot;font-size: 7px; background-color: initial;&quot;&gt;Participant Data Source&lt;/span&gt;&lt;br&gt;&lt;/p&gt;" style="shape=note;whiteSpace=wrap;html=1;backgroundOutline=1;darkOpacity=0.05;aspect=fixed;size=14;" parent="vBTqLdXRIyOvVhQML8VP-25" vertex="1">
          <mxGeometry width="48" height="60" as="geometry" />
        </mxCell>
        <mxCell id="vBTqLdXRIyOvVhQML8VP-27" value="&lt;font style=&quot;font-size: 7px;&quot;&gt;.csv&lt;/font&gt;" style="text;html=1;strokeColor=none;fillColor=none;align=center;verticalAlign=middle;whiteSpace=wrap;rounded=0;" parent="vBTqLdXRIyOvVhQML8VP-25" vertex="1">
          <mxGeometry x="28" y="47" width="19" height="10" as="geometry" />
        </mxCell>
        <mxCell id="vBTqLdXRIyOvVhQML8VP-107" style="edgeStyle=orthogonalEdgeStyle;rounded=0;orthogonalLoop=1;jettySize=auto;html=1;entryX=0.5;entryY=0;entryDx=0;entryDy=0;" parent="1" source="vBTqLdXRIyOvVhQML8VP-95" target="JxlkHMdp25saiBgIkoPC-2" edge="1">
          <mxGeometry relative="1" as="geometry">
            <Array as="points">
              <mxPoint x="190" y="-205" />
              <mxPoint x="258" y="-205" />
            </Array>
          </mxGeometry>
        </mxCell>
        <mxCell id="vBTqLdXRIyOvVhQML8VP-95" value="&lt;p style=&quot;line-height: 70%;&quot;&gt;&lt;font style=&quot;font-size: 7px;&quot;&gt;GetParticipantDataUseCase&lt;/font&gt;&lt;/p&gt;" style="rounded=1;whiteSpace=wrap;html=1;fillColor=#66FF66;" parent="1" vertex="1">
          <mxGeometry x="135" y="-235" width="110" height="20" as="geometry" />
        </mxCell>
        <mxCell id="vBTqLdXRIyOvVhQML8VP-111" style="edgeStyle=orthogonalEdgeStyle;rounded=0;orthogonalLoop=1;jettySize=auto;html=1;entryX=0.5;entryY=0;entryDx=0;entryDy=0;" parent="1" source="vBTqLdXRIyOvVhQML8VP-96" target="JxlkHMdp25saiBgIkoPC-2" edge="1">
          <mxGeometry relative="1" as="geometry">
            <Array as="points">
              <mxPoint x="190" y="-285" />
              <mxPoint x="258" y="-285" />
            </Array>
          </mxGeometry>
        </mxCell>
        <mxCell id="vBTqLdXRIyOvVhQML8VP-96" value="&lt;p style=&quot;line-height: 70%;&quot;&gt;&lt;font style=&quot;font-size: 7px;&quot;&gt;GetGroupAllocationPUseCase&lt;/font&gt;&lt;br&gt;&lt;/p&gt;" style="rounded=1;whiteSpace=wrap;html=1;fillColor=#66FF66;" parent="1" vertex="1">
          <mxGeometry x="135" y="-315" width="110" height="20" as="geometry" />
        </mxCell>
        <mxCell id="vBTqLdXRIyOvVhQML8VP-106" style="edgeStyle=orthogonalEdgeStyle;rounded=0;orthogonalLoop=1;jettySize=auto;html=1;entryX=0.5;entryY=0;entryDx=0;entryDy=0;" parent="1" source="vBTqLdXRIyOvVhQML8VP-99" target="JxlkHMdp25saiBgIkoPC-1" edge="1">
          <mxGeometry relative="1" as="geometry">
            <Array as="points">
              <mxPoint x="64" y="-205" />
              <mxPoint x="125" y="-205" />
            </Array>
          </mxGeometry>
        </mxCell>
        <mxCell id="vBTqLdXRIyOvVhQML8VP-99" value="&lt;p style=&quot;line-height: 70%;&quot;&gt;&lt;font style=&quot;font-size: 7px;&quot;&gt;GetInfoScreenDataUseCase&lt;/font&gt;&lt;br&gt;&lt;/p&gt;" style="rounded=1;whiteSpace=wrap;html=1;fillColor=#7EA6E0;" parent="1" vertex="1">
          <mxGeometry x="9" y="-235" width="110" height="20" as="geometry" />
        </mxCell>
        <mxCell id="vBTqLdXRIyOvVhQML8VP-109" style="edgeStyle=orthogonalEdgeStyle;rounded=0;orthogonalLoop=1;jettySize=auto;html=1;entryX=0.5;entryY=0;entryDx=0;entryDy=0;" parent="1" source="vBTqLdXRIyOvVhQML8VP-98" target="JxlkHMdp25saiBgIkoPC-2" edge="1">
          <mxGeometry relative="1" as="geometry">
            <Array as="points">
              <mxPoint x="325" y="-205" />
              <mxPoint x="258" y="-205" />
            </Array>
          </mxGeometry>
        </mxCell>
        <mxCell id="vBTqLdXRIyOvVhQML8VP-114" style="edgeStyle=orthogonalEdgeStyle;rounded=0;orthogonalLoop=1;jettySize=auto;html=1;entryX=0.5;entryY=0;entryDx=0;entryDy=0;" parent="1" source="vBTqLdXRIyOvVhQML8VP-100" target="JxlkHMdp25saiBgIkoPC-2" edge="1">
          <mxGeometry relative="1" as="geometry">
            <Array as="points">
              <mxPoint x="325" y="-245" />
              <mxPoint x="258" y="-245" />
            </Array>
          </mxGeometry>
        </mxCell>
        <mxCell id="vBTqLdXRIyOvVhQML8VP-100" value="&lt;p style=&quot;line-height: 70%; font-size: 7px;&quot;&gt;CreateNewParticipantUseCase&lt;br&gt;&lt;/p&gt;" style="rounded=1;whiteSpace=wrap;html=1;fillColor=#66FF66;" parent="1" vertex="1">
          <mxGeometry x="270" y="-275" width="110" height="20" as="geometry" />
        </mxCell>
        <mxCell id="vBTqLdXRIyOvVhQML8VP-112" style="edgeStyle=orthogonalEdgeStyle;rounded=0;orthogonalLoop=1;jettySize=auto;html=1;entryX=0.5;entryY=0;entryDx=0;entryDy=0;" parent="1" source="vBTqLdXRIyOvVhQML8VP-101" target="vBTqLdXRIyOvVhQML8VP-95" edge="1">
          <mxGeometry relative="1" as="geometry" />
        </mxCell>
        <mxCell id="vBTqLdXRIyOvVhQML8VP-101" value="&lt;p style=&quot;line-height: 70%;&quot;&gt;&lt;font style=&quot;font-size: 7px;&quot;&gt;GetNextDataEntryUseCase&lt;/font&gt;&lt;/p&gt;" style="rounded=1;whiteSpace=wrap;html=1;fillColor=#66FF66;" parent="1" vertex="1">
          <mxGeometry x="135" y="-275" width="110" height="20" as="geometry" />
        </mxCell>
        <mxCell id="vBTqLdXRIyOvVhQML8VP-115" style="edgeStyle=orthogonalEdgeStyle;rounded=0;orthogonalLoop=1;jettySize=auto;html=1;entryX=0.5;entryY=0;entryDx=0;entryDy=0;" parent="1" source="vBTqLdXRIyOvVhQML8VP-103" target="JxlkHMdp25saiBgIkoPC-2" edge="1">
          <mxGeometry relative="1" as="geometry">
            <Array as="points">
              <mxPoint x="325" y="-285" />
              <mxPoint x="258" y="-285" />
            </Array>
          </mxGeometry>
        </mxCell>
        <mxCell id="vBTqLdXRIyOvVhQML8VP-103" value="&lt;p style=&quot;line-height: 70%;&quot;&gt;&lt;font style=&quot;font-size: 7px;&quot;&gt;InsertDataPUseCase&lt;/font&gt;&lt;br&gt;&lt;/p&gt;" style="rounded=1;whiteSpace=wrap;html=1;fillColor=#66FF66;" parent="1" vertex="1">
          <mxGeometry x="270" y="-315" width="110" height="20" as="geometry" />
        </mxCell>
        <mxCell id="vBTqLdXRIyOvVhQML8VP-110" style="edgeStyle=orthogonalEdgeStyle;rounded=0;orthogonalLoop=1;jettySize=auto;html=1;" parent="1" source="vBTqLdXRIyOvVhQML8VP-104" target="JxlkHMdp25saiBgIkoPC-1" edge="1">
          <mxGeometry relative="1" as="geometry">
            <Array as="points">
              <mxPoint x="125" y="-305" />
            </Array>
          </mxGeometry>
        </mxCell>
        <mxCell id="vBTqLdXRIyOvVhQML8VP-104" value="&lt;p style=&quot;line-height: 70%;&quot;&gt;&lt;font style=&quot;font-size: 7px;&quot;&gt;GetGroupAllocationEUseCase&lt;/font&gt;&lt;br&gt;&lt;/p&gt;" style="rounded=1;whiteSpace=wrap;html=1;fillColor=#7EA6E0;" parent="1" vertex="1">
          <mxGeometry x="9" y="-315" width="110" height="20" as="geometry" />
        </mxCell>
        <mxCell id="vBTqLdXRIyOvVhQML8VP-98" value="&lt;p style=&quot;line-height: 70%; font-size: 7px;&quot;&gt;LogMetaDataUseCase&lt;br&gt;&lt;/p&gt;" style="rounded=1;whiteSpace=wrap;html=1;fillColor=#66FF66;" parent="1" vertex="1">
          <mxGeometry x="270" y="-235" width="110" height="20" as="geometry" />
        </mxCell>
        <mxCell id="S7ZbhNdXn-A5gybht8wA-1" value="&lt;p style=&quot;line-height: 70%;&quot;&gt;&lt;span style=&quot;font-size: 7px;&quot;&gt;AllocateGroupsUseCase&lt;/span&gt;&lt;/p&gt;" style="rounded=1;whiteSpace=wrap;html=1;fillColor=#00FFFF;" parent="1" vertex="1">
          <mxGeometry x="135" y="-390" width="110" height="20" as="geometry" />
        </mxCell>
        <mxCell id="CExmouOxwxJyfWh-y4l--4" value="" style="endArrow=classic;html=1;rounded=0;exitX=0.5;exitY=1;exitDx=0;exitDy=0;entryX=0.5;entryY=0;entryDx=0;entryDy=0;" parent="1" source="S7ZbhNdXn-A5gybht8wA-1" target="BiqcfHCSWog3dznEfrMv-1" edge="1">
          <mxGeometry width="50" height="50" relative="1" as="geometry">
            <mxPoint x="340" y="-355" as="sourcePoint" />
            <mxPoint x="390" y="-405" as="targetPoint" />
          </mxGeometry>
        </mxCell>
        <mxCell id="CExmouOxwxJyfWh-y4l--5" value="" style="endArrow=classic;html=1;rounded=0;exitX=0.5;exitY=1;exitDx=0;exitDy=0;entryX=0.5;entryY=0;entryDx=0;entryDy=0;" parent="1" source="S7ZbhNdXn-A5gybht8wA-1" target="vBTqLdXRIyOvVhQML8VP-96" edge="1">
          <mxGeometry width="50" height="50" relative="1" as="geometry">
            <mxPoint x="268" y="-325" as="sourcePoint" />
            <mxPoint x="335" y="-305" as="targetPoint" />
          </mxGeometry>
        </mxCell>
        <mxCell id="CExmouOxwxJyfWh-y4l--7" value="" style="endArrow=classic;html=1;rounded=0;exitX=0.5;exitY=1;exitDx=0;exitDy=0;entryX=0.5;entryY=0;entryDx=0;entryDy=0;" parent="1" source="S7ZbhNdXn-A5gybht8wA-1" target="vBTqLdXRIyOvVhQML8VP-104" edge="1">
          <mxGeometry width="50" height="50" relative="1" as="geometry">
            <mxPoint x="268" y="-325" as="sourcePoint" />
            <mxPoint x="200" y="-305" as="targetPoint" />
          </mxGeometry>
        </mxCell>
        <mxCell id="BiqcfHCSWog3dznEfrMv-4" value="Domain Layer" style="text;html=1;strokeColor=none;fillColor=none;align=left;verticalAlign=middle;whiteSpace=wrap;rounded=0;" parent="1" vertex="1">
          <mxGeometry x="9" y="-400" width="110" height="30" as="geometry" />
        </mxCell>
        <mxCell id="BiqcfHCSWog3dznEfrMv-5" value="Data Layer" style="text;html=1;strokeColor=none;fillColor=none;align=left;verticalAlign=middle;whiteSpace=wrap;rounded=0;" parent="1" vertex="1">
          <mxGeometry x="9" y="-185" width="110" height="30" as="geometry" />
        </mxCell>
        <mxCell id="IPze_3sE19fh0A5-yl63-3" style="edgeStyle=orthogonalEdgeStyle;rounded=0;orthogonalLoop=1;jettySize=auto;html=1;entryX=0.5;entryY=0;entryDx=0;entryDy=0;" parent="1" source="IPze_3sE19fh0A5-yl63-1" target="JxlkHMdp25saiBgIkoPC-1" edge="1">
          <mxGeometry relative="1" as="geometry">
            <Array as="points">
              <mxPoint x="125" y="-265" />
            </Array>
          </mxGeometry>
        </mxCell>
        <mxCell id="IPze_3sE19fh0A5-yl63-1" value="&lt;p style=&quot;line-height: 70%;&quot;&gt;&lt;font style=&quot;font-size: 7px;&quot;&gt;GetNextExperimentStepUseCase&lt;/font&gt;&lt;br&gt;&lt;/p&gt;" style="rounded=1;whiteSpace=wrap;html=1;fillColor=#7EA6E0;" parent="1" vertex="1">
          <mxGeometry x="9" y="-275" width="110" height="20" as="geometry" />
        </mxCell>
      </root>
    </mxGraphModel>
  </diagram>
</mxfile>
